<?xml version="1.0" encoding="UTF-8" standalone="no"?>
<!DOCTYPE svg PUBLIC "-//W3C//DTD SVG 1.1//EN"
 "http://www.w3.org/Graphics/SVG/1.1/DTD/svg11.dtd">
<!-- Generated by graphviz version 9.0.0 (20230911.1827)
 -->
<!-- Pages: 1 -->
<svg width="535pt" height="236pt"
 viewBox="0.00 0.00 535.00 236.06" xmlns="http://www.w3.org/2000/svg" xmlns:xlink="http://www.w3.org/1999/xlink">
<g id="graph0" class="graph" transform="scale(1 1) rotate(0) translate(4 232.06)">
<polygon fill="white" stroke="none" points="-4,4 -4,-232.06 531,-232.06 531,4 -4,4"/>
<text text-anchor="middle" x="263.5" y="-6.45" font-family="Times New Roman,serif" font-size="14.00">Balance Scorecard Financial Datasoruces</text>
<!-- A -->
<g id="node1" class="node">
<title>A</title>
<polygon fill="#d69cb4" stroke="black" points="59.5,-167.91 0,-167.91 0,-131.91 59.5,-131.91 59.5,-167.91"/>
<text text-anchor="middle" x="29.75" y="-144.48" font-family="Times New Roman,serif" font-size="14.00">Finance</text>
</g>
<!-- 1 -->
<g id="node2" class="node">
<title>1</title>
<polygon fill="lightblue" stroke="lightblue" points="148.25,-161.91 95.5,-161.91 95.5,-137.91 148.25,-137.91 148.25,-131.91 166.25,-149.91 148.25,-167.91 148.25,-161.91"/>
<text text-anchor="middle" x="130.88" y="-144.48" font-family="Times New Roman,serif" font-size="14.00">BS&#45;F&#45;001</text>
</g>
<!-- A&#45;&gt;1 -->
<g id="edge1" class="edge">
<title>A&#45;&gt;1</title>
<path fill="none" stroke="black" d="M59.95,-149.91C67.48,-149.91 75.77,-149.91 83.93,-149.91"/>
<polygon fill="black" stroke="black" points="83.77,-153.41 93.77,-149.91 83.77,-146.41 83.77,-153.41"/>
</g>
<!-- 2 -->
<g id="node3" class="node">
<title>2</title>
<polygon fill="lightblue" stroke="lightblue" points="148.25,-215.91 95.5,-215.91 95.5,-191.91 148.25,-191.91 148.25,-185.91 166.25,-203.91 148.25,-221.91 148.25,-215.91"/>
<text text-anchor="middle" x="130.88" y="-198.48" font-family="Times New Roman,serif" font-size="14.00">BS&#45;F&#45;002</text>
</g>
<!-- A&#45;&gt;2 -->
<g id="edge2" class="edge">
<title>A&#45;&gt;2</title>
<path fill="none" stroke="black" d="M59.95,-165.82C68.17,-170.29 77.29,-175.26 86.15,-180.09"/>
<polygon fill="black" stroke="black" points="84.21,-183.02 94.67,-184.73 87.56,-176.87 84.21,-183.02"/>
</g>
<!-- 3 -->
<g id="node4" class="node">
<title>3</title>
<polygon fill="lightblue" stroke="lightblue" points="148.25,-107.91 95.5,-107.91 95.5,-83.91 148.25,-83.91 148.25,-77.91 166.25,-95.91 148.25,-113.91 148.25,-107.91"/>
<text text-anchor="middle" x="130.88" y="-90.48" font-family="Times New Roman,serif" font-size="14.00">BS&#45;F&#45;003</text>
</g>
<!-- A&#45;&gt;3 -->
<g id="edge3" class="edge">
<title>A&#45;&gt;3</title>
<path fill="none" stroke="black" d="M59.95,-134C68.17,-129.52 77.29,-124.55 86.15,-119.72"/>
<polygon fill="black" stroke="black" points="87.56,-122.94 94.67,-115.09 84.21,-116.8 87.56,-122.94"/>
</g>
<!-- 5 -->
<g id="node5" class="node">
<title>5</title>
<polygon fill="#bfa29b" stroke="black" points="294.75,-221.91 202.25,-221.91 202.25,-185.91 294.75,-185.91 294.75,-221.91"/>
<text text-anchor="middle" x="248.5" y="-198.48" font-family="Times New Roman,serif" font-size="14.00">DataSoruce&#45;1</text>
</g>
<!-- 1&#45;&gt;5 -->
<g id="edge4" class="edge">
<title>1&#45;&gt;5</title>
<path fill="none" stroke="black" d="M166.57,-166.11C176.34,-170.67 187.18,-175.74 197.66,-180.63"/>
<polygon fill="black" stroke="black" points="196.05,-183.74 206.59,-184.8 199.02,-177.4 196.05,-183.74"/>
</g>
<!-- 6 -->
<g id="node6" class="node">
<title>6</title>
<polygon fill="#d69cb4" stroke="black" points="294.75,-167.91 202.25,-167.91 202.25,-131.91 294.75,-131.91 294.75,-167.91"/>
<text text-anchor="middle" x="248.5" y="-144.48" font-family="Times New Roman,serif" font-size="14.00">DataSoruce&#45;2</text>
</g>
<!-- 1&#45;&gt;6 -->
<g id="edge5" class="edge">
<title>1&#45;&gt;6</title>
<path fill="none" stroke="black" d="M166.57,-149.91C174.25,-149.91 182.58,-149.91 190.89,-149.91"/>
<polygon fill="black" stroke="black" points="190.61,-153.41 200.61,-149.91 190.61,-146.41 190.61,-153.41"/>
</g>
<!-- 2&#45;&gt;5 -->
<g id="edge6" class="edge">
<title>2&#45;&gt;5</title>
<path fill="none" stroke="black" d="M166.57,-203.91C174.25,-203.91 182.58,-203.91 190.89,-203.91"/>
<polygon fill="black" stroke="black" points="190.61,-207.41 200.61,-203.91 190.61,-200.41 190.61,-207.41"/>
</g>
<!-- 2&#45;&gt;6 -->
<g id="edge7" class="edge">
<title>2&#45;&gt;6</title>
<path fill="none" stroke="black" d="M166.57,-187.7C176.34,-183.14 187.18,-178.08 197.66,-173.18"/>
<polygon fill="black" stroke="black" points="199.02,-176.41 206.59,-169.01 196.05,-170.07 199.02,-176.41"/>
</g>
<!-- 7 -->
<g id="node7" class="node">
<title>7</title>
<polygon fill="#d69cb4" stroke="black" points="294.75,-59.91 202.25,-59.91 202.25,-23.91 294.75,-23.91 294.75,-59.91"/>
<text text-anchor="middle" x="248.5" y="-36.48" font-family="Times New Roman,serif" font-size="14.00">DataSoruce&#45;3</text>
</g>
<!-- 3&#45;&gt;7 -->
<g id="edge8" class="edge">
<title>3&#45;&gt;7</title>
<path fill="none" stroke="black" d="M166.57,-79.7C176.34,-75.14 187.18,-70.08 197.66,-65.18"/>
<polygon fill="black" stroke="black" points="199.02,-68.41 206.59,-61.01 196.05,-62.07 199.02,-68.41"/>
</g>
<!-- 8 -->
<g id="node8" class="node">
<title>8</title>
<polygon fill="#d69cb4" stroke="black" points="294.75,-113.91 202.25,-113.91 202.25,-77.91 294.75,-77.91 294.75,-113.91"/>
<text text-anchor="middle" x="248.5" y="-90.48" font-family="Times New Roman,serif" font-size="14.00">DataSoruce&#45;4</text>
</g>
<!-- 3&#45;&gt;8 -->
<g id="edge9" class="edge">
<title>3&#45;&gt;8</title>
<path fill="none" stroke="black" d="M166.57,-95.91C174.25,-95.91 182.58,-95.91 190.89,-95.91"/>
<polygon fill="black" stroke="black" points="190.61,-99.41 200.61,-95.91 190.61,-92.41 190.61,-99.41"/>
</g>
<!-- b -->
<g id="node9" class="node">
<title>b</title>
<path fill="#aff0cd" stroke="black" d="M406,-223.12C406,-225.85 389.14,-228.06 368.38,-228.06 347.61,-228.06 330.75,-225.85 330.75,-223.12 330.75,-223.12 330.75,-178.69 330.75,-178.69 330.75,-175.96 347.61,-173.75 368.38,-173.75 389.14,-173.75 406,-175.96 406,-178.69 406,-178.69 406,-223.12 406,-223.12"/>
<path fill="none" stroke="black" d="M406,-223.12C406,-220.4 389.14,-218.19 368.38,-218.19 347.61,-218.19 330.75,-220.4 330.75,-223.12"/>
<text text-anchor="middle" x="368.38" y="-203.36" font-family="Times New Roman,serif" font-size="14.00">Employee </text>
<text text-anchor="middle" x="368.38" y="-187.61" font-family="Times New Roman,serif" font-size="14.00"> Table</text>
</g>
<!-- 5&#45;&gt;b -->
<g id="edge10" class="edge">
<title>5&#45;&gt;b</title>
<path fill="none" stroke="black" d="M295.07,-202.75C302.91,-202.55 311.08,-202.34 318.98,-202.14"/>
<polygon fill="black" stroke="black" points="318.89,-205.64 328.8,-201.89 318.71,-198.64 318.89,-205.64"/>
</g>
<!-- c -->
<g id="node10" class="node">
<title>c</title>
<path fill="#aff0cd" stroke="black" d="M395.38,-149.12C395.38,-151.85 383.27,-154.06 368.38,-154.06 353.48,-154.06 341.38,-151.85 341.38,-149.12 341.38,-149.12 341.38,-104.69 341.38,-104.69 341.38,-101.96 353.48,-99.75 368.38,-99.75 383.27,-99.75 395.38,-101.96 395.38,-104.69 395.38,-104.69 395.38,-149.12 395.38,-149.12"/>
<path fill="none" stroke="black" d="M395.38,-149.12C395.38,-146.4 383.27,-144.19 368.38,-144.19 353.48,-144.19 341.38,-146.4 341.38,-149.12"/>
<text text-anchor="middle" x="368.38" y="-129.36" font-family="Times New Roman,serif" font-size="14.00">ERP </text>
<text text-anchor="middle" x="368.38" y="-113.61" font-family="Times New Roman,serif" font-size="14.00"> Table</text>
</g>
<!-- 6&#45;&gt;c -->
<g id="edge12" class="edge">
<title>6&#45;&gt;c</title>
<path fill="none" stroke="black" d="M295.07,-141.01C306.61,-138.76 318.87,-136.37 329.96,-134.21"/>
<polygon fill="black" stroke="black" points="330.37,-137.69 339.52,-132.34 329.03,-130.82 330.37,-137.69"/>
</g>
<!-- e -->
<g id="node11" class="node">
<title>e</title>
<path fill="#aff0cd" stroke="black" d="M401.12,-73.12C401.12,-75.85 386.45,-78.06 368.38,-78.06 350.3,-78.06 335.62,-75.85 335.62,-73.12 335.62,-73.12 335.62,-28.69 335.62,-28.69 335.62,-25.96 350.3,-23.75 368.38,-23.75 386.45,-23.75 401.12,-25.96 401.12,-28.69 401.12,-28.69 401.12,-73.12 401.12,-73.12"/>
<path fill="none" stroke="black" d="M401.12,-73.12C401.12,-70.4 386.45,-68.19 368.38,-68.19 350.3,-68.19 335.62,-70.4 335.62,-73.12"/>
<text text-anchor="middle" x="368.38" y="-53.36" font-family="Times New Roman,serif" font-size="14.00">Projects </text>
<text text-anchor="middle" x="368.38" y="-37.61" font-family="Times New Roman,serif" font-size="14.00"> Table</text>
</g>
<!-- 7&#45;&gt;e -->
<g id="edge15" class="edge">
<title>7&#45;&gt;e</title>
<path fill="none" stroke="black" d="M295.07,-45.39C304.65,-46.12 314.73,-46.89 324.22,-47.61"/>
<polygon fill="black" stroke="black" points="323.68,-51.08 333.92,-48.35 324.21,-44.1 323.68,-51.08"/>
</g>
<!-- 8&#45;&gt;c -->
<g id="edge11" class="edge">
<title>8&#45;&gt;c</title>
<path fill="none" stroke="black" d="M295.07,-107.89C306.61,-110.93 318.87,-114.15 329.96,-117.07"/>
<polygon fill="black" stroke="black" points="328.98,-120.43 339.54,-119.59 330.76,-113.66 328.98,-120.43"/>
</g>
<!-- d -->
<g id="node12" class="node">
<title>d</title>
<polygon fill="#ede3bb" stroke="black" points="521,-146.66 442,-146.66 442,-107.16 527,-107.16 527,-140.66 521,-146.66"/>
<polyline fill="none" stroke="black" points="521,-146.66 521,-140.66"/>
<polyline fill="none" stroke="black" points="527,-140.66 521,-140.66"/>
<text text-anchor="middle" x="484.5" y="-129.36" font-family="Times New Roman,serif" font-size="14.00">Power BI </text>
<text text-anchor="middle" x="484.5" y="-113.61" font-family="Times New Roman,serif" font-size="14.00"> Dashboard </text>
</g>
<!-- b&#45;&gt;d -->
<g id="edge13" class="edge">
<title>b&#45;&gt;d</title>
<path fill="none" stroke="black" d="M406.43,-176.88C418.02,-169.36 430.88,-161.03 442.71,-153.35"/>
<polygon fill="black" stroke="black" points="444.61,-156.3 451.09,-147.92 440.8,-150.42 444.61,-156.3"/>
</g>
<!-- c&#45;&gt;d -->
<g id="edge14" class="edge">
<title>c&#45;&gt;d</title>
<path fill="none" stroke="black" d="M395.84,-126.91C406.12,-126.91 418.28,-126.91 430.22,-126.91"/>
<polygon fill="black" stroke="black" points="430.02,-130.41 440.02,-126.91 430.02,-123.41 430.02,-130.41"/>
</g>
<!-- e&#45;&gt;d -->
<g id="edge16" class="edge">
<title>e&#45;&gt;d</title>
<path fill="none" stroke="black" d="M401.47,-72.28C414.65,-81.05 430.04,-91.3 443.9,-100.54"/>
<polygon fill="black" stroke="black" points="441.69,-103.27 451.96,-105.9 445.57,-97.44 441.69,-103.27"/>
</g>
</g>
</svg>
