<?xml version="1.0" encoding="UTF-8" standalone="no"?>
<!DOCTYPE svg PUBLIC "-//W3C//DTD SVG 1.1//EN"
 "http://www.w3.org/Graphics/SVG/1.1/DTD/svg11.dtd">
<!-- Generated by graphviz version 9.0.0 (20230911.1827)
 -->
<!-- Pages: 1 -->
<svg width="666pt" height="404pt"
 viewBox="0.00 0.00 665.62 404.00" xmlns="http://www.w3.org/2000/svg" xmlns:xlink="http://www.w3.org/1999/xlink">
<g id="graph0" class="graph" transform="scale(1 1) rotate(0) translate(4 400)">
<polygon fill="white" stroke="none" points="-4,4 -4,-400 661.62,-400 661.62,4 -4,4"/>
<!-- z -->
<g id="node1" class="node">
<title>z</title>
<text text-anchor="middle" x="308.25" y="-372.57" font-family="Times New Roman,serif" font-size="14.00">Department Folder Hierarchy</text>
</g>
<!-- 5 -->
<g id="node2" class="node">
<title>5</title>
<polygon fill="none" stroke="black" points="356.75,-324 259.75,-324 259.75,-288 356.75,-288 356.75,-324"/>
<text text-anchor="middle" x="308.25" y="-300.57" font-family="Times New Roman,serif" font-size="14.00">00 First&#45; Level</text>
</g>
<!-- z&#45;&gt;5 -->
<g id="edge1" class="edge">
<title>z&#45;&gt;5</title>
<path fill="none" stroke="black" d="M308.25,-360.05C308.25,-352.68 308.25,-343.84 308.25,-335.51"/>
<polygon fill="black" stroke="black" points="311.75,-335.79 308.25,-325.79 304.75,-335.79 311.75,-335.79"/>
</g>
<!-- 1 -->
<g id="node3" class="node">
<title>1</title>
<polygon fill="none" stroke="red" points="352.62,-252 263.88,-252 263.88,-216 352.62,-216 352.62,-252"/>
<text text-anchor="middle" x="308.25" y="-228.57" font-family="Times New Roman,serif" font-size="14.00">00 Reporting</text>
</g>
<!-- 5&#45;&gt;1 -->
<g id="edge2" class="edge">
<title>5&#45;&gt;1</title>
<path fill="none" stroke="black" d="M308.25,-287.7C308.25,-280.41 308.25,-271.73 308.25,-263.54"/>
<polygon fill="black" stroke="black" points="311.75,-263.62 308.25,-253.62 304.75,-263.62 311.75,-263.62"/>
</g>
<!-- 2 -->
<g id="node4" class="node">
<title>2</title>
<polygon fill="none" stroke="greenyellow" points="198.12,-180 118.38,-180 118.38,-144 198.12,-144 198.12,-180"/>
<text text-anchor="middle" x="158.25" y="-156.57" font-family="Times New Roman,serif" font-size="14.00">01 Monthly</text>
</g>
<!-- 1&#45;&gt;2 -->
<g id="edge3" class="edge">
<title>1&#45;&gt;2</title>
<path fill="none" stroke="black" d="M270.79,-215.52C251.11,-206.34 226.8,-194.99 205.81,-185.2"/>
<polygon fill="black" stroke="black" points="207.41,-182.08 196.87,-181.02 204.45,-188.42 207.41,-182.08"/>
</g>
<!-- 3 -->
<g id="node5" class="node">
<title>3</title>
<polygon fill="none" stroke="greenyellow" points="353.75,-180 262.75,-180 262.75,-144 353.75,-144 353.75,-180"/>
<text text-anchor="middle" x="308.25" y="-156.57" font-family="Times New Roman,serif" font-size="14.00">02 Bi Weekly</text>
</g>
<!-- 1&#45;&gt;3 -->
<g id="edge4" class="edge">
<title>1&#45;&gt;3</title>
<path fill="none" stroke="black" d="M308.25,-215.7C308.25,-208.41 308.25,-199.73 308.25,-191.54"/>
<polygon fill="black" stroke="black" points="311.75,-191.62 308.25,-181.62 304.75,-191.62 311.75,-191.62"/>
</g>
<!-- 4 -->
<g id="node6" class="node">
<title>4</title>
<polygon fill="none" stroke="greenyellow" points="515.88,-180 440.62,-180 440.62,-144 515.88,-144 515.88,-180"/>
<text text-anchor="middle" x="478.25" y="-156.57" font-family="Times New Roman,serif" font-size="14.00">03 Weekly</text>
</g>
<!-- 1&#45;&gt;4 -->
<g id="edge5" class="edge">
<title>1&#45;&gt;4</title>
<path fill="none" stroke="black" d="M350.71,-215.52C374.8,-205.6 405.04,-193.14 430.03,-182.86"/>
<polygon fill="black" stroke="black" points="431.07,-186.21 438.98,-179.17 428.4,-179.74 431.07,-186.21"/>
</g>
<!-- 6 -->
<g id="node7" class="node">
<title>6</title>
<polygon fill="none" stroke="#00008b" points="86.5,-108 0,-108 0,-72 86.5,-72 86.5,-108"/>
<text text-anchor="middle" x="43.25" y="-84.58" font-family="Times New Roman,serif" font-size="14.00">August 2023</text>
</g>
<!-- 2&#45;&gt;6 -->
<g id="edge6" class="edge">
<title>2&#45;&gt;6</title>
<path fill="none" stroke="black" d="M129.53,-143.52C114.87,-134.6 96.86,-123.63 81.09,-114.03"/>
<polygon fill="black" stroke="black" points="83.26,-111.26 72.9,-109.05 79.62,-117.24 83.26,-111.26"/>
</g>
<!-- 7 -->
<g id="node8" class="node">
<title>7</title>
<polygon fill="none" stroke="#00008b" points="211.62,-108 104.88,-108 104.88,-72 211.62,-72 211.62,-108"/>
<text text-anchor="middle" x="158.25" y="-84.58" font-family="Times New Roman,serif" font-size="14.00">September 2023</text>
</g>
<!-- 2&#45;&gt;7 -->
<g id="edge7" class="edge">
<title>2&#45;&gt;7</title>
<path fill="none" stroke="black" d="M158.25,-143.7C158.25,-136.41 158.25,-127.73 158.25,-119.54"/>
<polygon fill="black" stroke="black" points="161.75,-119.62 158.25,-109.62 154.75,-119.62 161.75,-119.62"/>
</g>
<!-- 8 -->
<g id="node9" class="node">
<title>8</title>
<polygon fill="none" stroke="#00008b" points="316.5,-108 230,-108 230,-72 316.5,-72 316.5,-108"/>
<text text-anchor="middle" x="273.25" y="-84.58" font-family="Times New Roman,serif" font-size="14.00">August 2023</text>
</g>
<!-- 3&#45;&gt;8 -->
<g id="edge8" class="edge">
<title>3&#45;&gt;8</title>
<path fill="none" stroke="black" d="M299.6,-143.7C295.78,-136.07 291.21,-126.92 286.95,-118.4"/>
<polygon fill="black" stroke="black" points="290.08,-116.84 282.48,-109.46 283.82,-119.97 290.08,-116.84"/>
</g>
<!-- 9 -->
<g id="node10" class="node">
<title>9</title>
<polygon fill="none" stroke="#00008b" points="441.62,-108 334.88,-108 334.88,-72 441.62,-72 441.62,-108"/>
<text text-anchor="middle" x="388.25" y="-84.58" font-family="Times New Roman,serif" font-size="14.00">September 2023</text>
</g>
<!-- 3&#45;&gt;9 -->
<g id="edge9" class="edge">
<title>3&#45;&gt;9</title>
<path fill="none" stroke="black" d="M328.03,-143.7C337.64,-135.28 349.37,-125.02 359.92,-115.79"/>
<polygon fill="black" stroke="black" points="362.06,-118.56 367.29,-109.34 357.46,-113.29 362.06,-118.56"/>
</g>
<!-- A -->
<g id="node11" class="node">
<title>A</title>
<polygon fill="none" stroke="#00008b" points="566.62,-108 459.88,-108 459.88,-72 566.62,-72 566.62,-108"/>
<text text-anchor="middle" x="513.25" y="-84.58" font-family="Times New Roman,serif" font-size="14.00">September 2023</text>
</g>
<!-- 4&#45;&gt;A -->
<g id="edge10" class="edge">
<title>4&#45;&gt;A</title>
<path fill="none" stroke="black" d="M486.9,-143.7C490.72,-136.07 495.29,-126.92 499.55,-118.4"/>
<polygon fill="black" stroke="black" points="502.68,-119.97 504.02,-109.46 496.42,-116.84 502.68,-119.97"/>
</g>
<!-- B -->
<g id="node12" class="node">
<title>B</title>
<polygon fill="none" stroke="darkgreen" points="426.62,-36 367.88,-36 367.88,0 426.62,0 426.62,-36"/>
<text text-anchor="middle" x="397.25" y="-12.57" font-family="Times New Roman,serif" font-size="14.00">Week 1</text>
</g>
<!-- A&#45;&gt;B -->
<g id="edge11" class="edge">
<title>A&#45;&gt;B</title>
<path fill="none" stroke="black" d="M484.28,-71.52C469.5,-62.6 451.32,-51.63 435.42,-42.03"/>
<polygon fill="black" stroke="black" points="437.52,-39.21 427.15,-37.04 433.9,-45.21 437.52,-39.21"/>
</g>
<!-- C -->
<g id="node13" class="node">
<title>C</title>
<polygon fill="none" stroke="darkgreen" points="503.62,-36 444.88,-36 444.88,0 503.62,0 503.62,-36"/>
<text text-anchor="middle" x="474.25" y="-12.57" font-family="Times New Roman,serif" font-size="14.00">Week 2</text>
</g>
<!-- A&#45;&gt;C -->
<g id="edge12" class="edge">
<title>A&#45;&gt;C</title>
<path fill="none" stroke="black" d="M503.61,-71.7C499.31,-63.98 494.15,-54.71 489.36,-46.11"/>
<polygon fill="black" stroke="black" points="492.44,-44.46 484.52,-37.43 486.33,-47.87 492.44,-44.46"/>
</g>
<!-- D -->
<g id="node14" class="node">
<title>D</title>
<polygon fill="none" stroke="darkgreen" points="580.62,-36 521.88,-36 521.88,0 580.62,0 580.62,-36"/>
<text text-anchor="middle" x="551.25" y="-12.57" font-family="Times New Roman,serif" font-size="14.00">Week 3</text>
</g>
<!-- A&#45;&gt;D -->
<g id="edge13" class="edge">
<title>A&#45;&gt;D</title>
<path fill="none" stroke="black" d="M522.64,-71.7C526.83,-63.98 531.86,-54.71 536.53,-46.11"/>
<polygon fill="black" stroke="black" points="539.55,-47.89 541.24,-37.43 533.4,-44.55 539.55,-47.89"/>
</g>
<!-- E -->
<g id="node15" class="node">
<title>E</title>
<polygon fill="none" stroke="darkgreen" points="657.62,-36 598.88,-36 598.88,0 657.62,0 657.62,-36"/>
<text text-anchor="middle" x="628.25" y="-12.57" font-family="Times New Roman,serif" font-size="14.00">Week 4</text>
</g>
<!-- A&#45;&gt;E -->
<g id="edge14" class="edge">
<title>A&#45;&gt;E</title>
<path fill="none" stroke="black" d="M541.97,-71.52C556.63,-62.6 574.64,-51.63 590.41,-42.03"/>
<polygon fill="black" stroke="black" points="591.88,-45.24 598.6,-37.05 588.24,-39.26 591.88,-45.24"/>
</g>
</g>
</svg>
