<?xml version="1.0" encoding="UTF-8" standalone="no"?>
<!DOCTYPE svg PUBLIC "-//W3C//DTD SVG 1.1//EN"
 "http://www.w3.org/Graphics/SVG/1.1/DTD/svg11.dtd">
<!-- Generated by graphviz version 9.0.0 (20230911.1827)
 -->
<!-- Title: User&#45;Logs&#45;Analysis Pages: 1 -->
<svg width="475pt" height="548pt"
 viewBox="0.00 0.00 474.71 548.00" xmlns="http://www.w3.org/2000/svg" xmlns:xlink="http://www.w3.org/1999/xlink">
<g id="graph0" class="graph" transform="scale(1 1) rotate(0) translate(4 544)">
<title>User&#45;Logs&#45;Analysis</title>
<polygon fill="white" stroke="none" points="-4,4 -4,-544 470.71,-544 470.71,4 -4,4"/>
<!-- 1 -->
<g id="node1" class="node">
<title>1</title>
<ellipse fill="lightgrey" stroke="lightgrey" cx="233.35" cy="-522" rx="119.93" ry="18"/>
<text text-anchor="middle" x="233.35" y="-516.58" font-family="Times New Roman,serif" font-size="14.00">Export Data on 08&#45;December</text>
</g>
<!-- 2 -->
<g id="node2" class="node">
<title>2</title>
<polygon fill="none" stroke="black" points="348.23,-468 118.48,-468 118.48,-432 348.23,-432 348.23,-468"/>
<text text-anchor="middle" x="233.35" y="-444.57" font-family="Times New Roman,serif" font-size="14.00">Export User Logs Details from D 365 </text>
</g>
<!-- 1&#45;&gt;2 -->
<g id="edge1" class="edge">
<title>1&#45;&gt;2</title>
<path fill="none" stroke="black" d="M233.35,-503.7C233.35,-496.41 233.35,-487.73 233.35,-479.54"/>
<polygon fill="black" stroke="black" points="236.85,-479.62 233.35,-469.62 229.85,-479.62 236.85,-479.62"/>
</g>
<!-- 3 -->
<g id="node3" class="node">
<title>3</title>
<polygon fill="none" stroke="black" points="324.23,-396 142.48,-396 142.48,-360 324.23,-360 324.23,-396"/>
<text text-anchor="middle" x="233.35" y="-372.57" font-family="Times New Roman,serif" font-size="14.00">Export Licence Data in D 365</text>
</g>
<!-- 2&#45;&gt;3 -->
<g id="edge2" class="edge">
<title>2&#45;&gt;3</title>
<path fill="none" stroke="black" d="M233.35,-431.7C233.35,-424.41 233.35,-415.73 233.35,-407.54"/>
<polygon fill="black" stroke="black" points="236.85,-407.62 233.35,-397.62 229.85,-407.62 236.85,-407.62"/>
</g>
<!-- 4 -->
<g id="node4" class="node">
<title>4</title>
<polygon fill="lightgrey" stroke="lightgrey" points="324.98,-324 141.73,-324 141.73,-288 324.98,-288 324.98,-324"/>
<text text-anchor="middle" x="233.35" y="-300.57" font-family="Times New Roman,serif" font-size="14.00">Process with provided criteria</text>
</g>
<!-- 3&#45;&gt;4 -->
<g id="edge3" class="edge">
<title>3&#45;&gt;4</title>
<path fill="none" stroke="black" d="M233.35,-359.7C233.35,-352.41 233.35,-343.73 233.35,-335.54"/>
<polygon fill="black" stroke="black" points="236.85,-335.62 233.35,-325.62 229.85,-335.62 236.85,-335.62"/>
</g>
<!-- 5 -->
<g id="node5" class="node">
<title>5</title>
<polygon fill="none" stroke="black" points="387.23,-252 79.48,-252 79.48,-216 387.23,-216 387.23,-252"/>
<text text-anchor="middle" x="233.35" y="-228.57" font-family="Times New Roman,serif" font-size="14.00">First meeting with middle management 12&#45;December</text>
</g>
<!-- 4&#45;&gt;5 -->
<g id="edge4" class="edge">
<title>4&#45;&gt;5</title>
<path fill="none" stroke="black" d="M233.35,-287.7C233.35,-280.41 233.35,-271.73 233.35,-263.54"/>
<polygon fill="black" stroke="black" points="236.85,-263.62 233.35,-253.62 229.85,-263.62 236.85,-263.62"/>
</g>
<!-- 6 -->
<g id="node6" class="node">
<title>6</title>
<polygon fill="none" stroke="black" points="393.98,-180 72.73,-180 72.73,-144 393.98,-144 393.98,-180"/>
<text text-anchor="middle" x="233.35" y="-156.57" font-family="Times New Roman,serif" font-size="14.00">Second meeting with higher management 22&#45;December</text>
</g>
<!-- 5&#45;&gt;6 -->
<g id="edge5" class="edge">
<title>5&#45;&gt;6</title>
<path fill="none" stroke="black" d="M233.35,-215.7C233.35,-208.41 233.35,-199.73 233.35,-191.54"/>
<polygon fill="black" stroke="black" points="236.85,-191.62 233.35,-181.62 229.85,-191.62 236.85,-191.62"/>
</g>
<!-- 7 -->
<g id="node7" class="node">
<title>7</title>
<polygon fill="lightgrey" stroke="lightgrey" points="466.71,-95.56 233.35,-108 0,-95.56 0.22,-75.44 466.49,-75.44 466.71,-95.56"/>
<text text-anchor="middle" x="233.35" y="-84.58" font-family="Times New Roman,serif" font-size="14.00">Comments Adding variables to Main dashboard</text>
</g>
<!-- 6&#45;&gt;7 -->
<g id="edge6" class="edge">
<title>6&#45;&gt;7</title>
<path fill="none" stroke="black" d="M233.35,-143.7C233.35,-136.41 233.35,-127.73 233.35,-119.54"/>
<polygon fill="black" stroke="black" points="236.85,-119.62 233.35,-109.62 229.85,-119.62 236.85,-119.62"/>
</g>
<!-- 8 -->
<g id="node8" class="node">
<title>8</title>
<ellipse fill="none" stroke="black" cx="233.35" cy="-18" rx="107.45" ry="18"/>
<text text-anchor="middle" x="233.35" y="-12.57" font-family="Times New Roman,serif" font-size="14.00">Next Report Before 30 IA</text>
</g>
<!-- 7&#45;&gt;8 -->
<g id="edge7" class="edge">
<title>7&#45;&gt;8</title>
<path fill="none" stroke="black" d="M233.35,-75.17C233.35,-67.33 233.35,-57.21 233.35,-47.73"/>
<polygon fill="black" stroke="black" points="236.85,-47.79 233.35,-37.79 229.85,-47.79 236.85,-47.79"/>
</g>
</g>
</svg>
